<svg width="64" height="64" viewBox="0 0 64 64" fill="none" xmlns="http://www.w3.org/2000/svg">
<path d="M43.1733 5.33334H20.8533C11.1467 5.33334 5.36002 11.12 5.36002 20.8267V43.1467C5.36002 52.8533 11.1467 58.64 20.8533 58.64H43.1733C52.88 58.64 58.6667 52.8533 58.6667 43.1467V20.8267C58.6667 11.12 52.88 5.33334 43.1733 5.33334Z" fill="#FFDC3F"/>
<path d="M23.52 42.72C23.0134 42.72 22.5067 42.5333 22.1067 42.1333C21.3334 41.36 21.3334 40.08 22.1067 39.3066L39.5733 21.84C40.3467 21.0667 41.6267 21.0667 42.4 21.84C43.1733 22.6133 43.1733 23.8933 42.4 24.6667L24.9334 42.1333C24.5334 42.5333 24.0267 42.72 23.52 42.72Z" fill="black"/>
<path d="M24.6134 20.4267C22.4534 20.4267 20.6667 22.1867 20.6667 24.3734C20.6667 26.5334 22.4267 28.32 24.6134 28.32C26.7734 28.32 28.56 26.56 28.56 24.3734C28.5333 22.1867 26.7734 20.4267 24.6134 20.4267Z" fill="black"/>
<path d="M42.0533 35.7067C39.8933 35.7067 38.1067 37.4666 38.1067 39.6533C38.1067 41.8133 39.8666 43.6 42.0533 43.6C44.2133 43.6 46 41.84 46 39.6533C46 37.4666 44.24 35.7067 42.0533 35.7067Z" fill="black"/>
</svg>
